<svg id="Layer_5" enable-background="new 0 0 64 64" height="512" viewBox="0 0 64 64" width="512" xmlns="http://www.w3.org/2000/svg"><g><g><g><path d="m50 34v3h-12-30v-4h2 16 22v1z" fill="#969faa"/></g><g><path d="m8 37h42v8h-42z" fill="#ccd1d9"/></g><g><path d="m16 45v5h-6v-5-1c0-1.66 1.34-3 3-3 .83 0 1.58.34 2.12.88s.88 1.29.88 2.12z" fill="#e6e9ed"/></g><g><path d="m26 45v5h-6v-5-1c0-1.66 1.34-3 3-3 .83 0 1.58.34 2.12.88s.88 1.29.88 2.12z" fill="#e6e9ed"/></g><g><path d="m36 45v5h-6v-5-1c0-1.66 1.34-3 3-3 .83 0 1.58.34 2.12.88s.88 1.29.88 2.12z" fill="#e6e9ed"/></g><g><path d="m48 45v3h-2v2h-6v-5c0-2.21 1.79-4 4-4 1.1 0 2.1.45 2.83 1.17.72.73 1.17 1.73 1.17 2.83z" fill="#e6e9ed"/></g><g><path d="m10 45v5h-4v-9l2-3 2 3v3z" fill="#aab2bd"/></g><g><path d="m20 45v5h-4v-5-1-3l2-3 2 3v3z" fill="#aab2bd"/></g><g><path d="m30 45v5h-4v-5-1-3l2-3 2 3v3z" fill="#aab2bd"/></g><g><path d="m40 45v5h-4v-5-1-3l2-3 2 3z" fill="#aab2bd"/></g><g><path d="m50 21v9h-2v3h-22v-4l-4.67-8h3.67 4 4 4z" fill="#fcd770"/></g><g><path d="m21.33 21 4.67 8h-16l6.5-11.14c.31-.53.88-.86 1.5-.86s1.19.33 1.5.86z" fill="#ffeaa7"/></g><g><path d="m10 29h16v4h-16z" fill="#ffeaa7"/></g><g><path d="m62 48v4h-2-12-2v-2-2h2 12z" fill="#d3a06c"/></g><g><path d="m60 52v10h-4v-6h-4v6h-4v-10z" fill="#ecc19c"/></g><g><path d="m60 42v6h-12v-3-3h2 8z" fill="#ecc19c"/></g><g><path d="m60 30v4h-2-8-2v-1-3h2 8z" fill="#d3a06c"/></g><g><path d="m58 34v8h-8v-5-3z" fill="#dfb28b"/></g><g><path d="m58 18v12h-8v-9-3z" fill="#ecc19c"/></g><g><path d="m54 12 4 6h-8z" fill="#ecc19c"/></g><g><path d="m52 56h4v6h-4z" fill="#e6e9ed"/></g><g><path d="m46 52v-2h-44v12h46v-10z" fill="#dfb28b"/></g><g><path d="m40 54h4v4h-4z" fill="#aab2bd"/></g><g><path d="m37 16v5h-4v-5l2-3z" fill="#b4dd7f"/></g><g><path d="m32 54h4v4h-4z" fill="#aab2bd"/></g><g><path d="m29 16v5h-4v-5l2-3z" fill="#b4dd7f"/></g><g><path d="m22 54h6v8h-6z" fill="#e6e9ed"/></g><g><path d="m14 54h4v4h-4z" fill="#aab2bd"/></g><g><path d="m6 54h4v4h-4z" fill="#aab2bd"/></g></g><g><path d="m63 47h-2v-6h-2v-6h2v-6h-2v-11.303l-4-6v-6.697h2v-2h-2v-2h-2v2h-2v2h2v6.697l-4 6v2.303h-11v-4.303l-2-3v-2.697h2v-2h-2v-2h-2v2h-2v2h2v2.697l-2 3v4.303h-2v-4.303l-2-3v-2.697h2v-2h-2v-2h-2v2h-2v2h2v2.697l-2 3v4.303h-2.092l-1.54-2.64c-.49-.839-1.397-1.36-2.368-1.36s-1.878.521-2.368 1.36l-6.632 11.369v3.271h-2v5.697l-2 3v8.303h-4v14h60v-10h2zm-14 0v-4h10v4zm-4 0v2h-4v-4c0-1.654 1.346-3 3-3s3 1.346 3 3v2zm4-6h-2v.026c-.838-.635-1.87-1.026-3-1.026s-2.162.391-3 1.026v-.328l-1.798-2.698h9.798zm-13.931-.406c-.606-.369-1.309-.594-2.069-.594s-1.463.225-2.069.594l-1.729-2.594h7.596zm-10 0c-.606-.369-1.309-.594-2.069-.594s-1.463.225-2.069.594l-1.729-2.594h7.596zm-10 0c-.606-.369-1.309-.594-2.069-.594s-1.463.225-2.069.594l-1.729-2.594h7.596zm-4.069 3.406c0-1.103.897-2 2-2s2 .897 2 2v1 4h-4v-4zm6 1v-1-2.697l1-1.5 1 1.5v2.697 1 4h-2zm4 0v-1c0-1.103.897-2 2-2s2 .897 2 2v1 4h-4zm6 0v-1-2.697l1-1.5 1 1.5v2.697 1 4h-2zm4 0v-1c0-1.103.897-2 2-2s2 .897 2 2v1 4h-4zm6 0v-1-2.697l1-1.5 1 1.5v7.697h-2zm20-4h-6v-6h6zm2-8h-10v-2h10zm-8-4v-10h6v10zm.868-12 2.132-3.197 2.132 3.197zm-17.868-.697 1-1.5 1 1.5v3.697h-2zm-8 0 1-1.5 1 1.5v3.697h-2zm23 5.697v7h-2v3h-20v-3.271l-3.926-6.729zm-31.64-3.632c.265-.455 1.016-.455 1.28 0l5.619 9.632h-12.518zm-6.36 11.632h14v2h-14zm-2 4h38v1h2v1h-40zm-2 7.303 1-1.5 1 1.5v2.697 1 4h-2zm-4 9.697h42v2h2v8h-18v-8h-8v8h-18zm24 10h-4v-6h4zm28 0h-2v-4h2zm4 0h-2v-6h-6v6h-2v-8h10zm2-10h-14v-2h14z"/><path d="m53 21h2v6h-2z"/><path d="m5 59h6v-6h-6zm2-4h2v2h-2z"/><path d="m13 53v6h6v-6zm4 4h-2v-2h2z"/><path d="m37 53h-6v6h6zm-2 4h-2v-2h2z"/><path d="m39 59h6v-6h-6zm2-4h2v2h-2z"/><path d="m29 23.394h2v7.211h-2z" transform="matrix(.832 -.555 .555 .832 -9.938 21.176)"/><path d="m35 23.394h2v7.211h-2z" transform="matrix(.832 -.555 .555 .832 -8.931 24.504)"/><path d="m41 23.394h2v7.211h-2z" transform="matrix(.832 -.555 .555 .832 -7.923 27.832)"/></g></g></svg>