<svg height="511pt" viewBox="0 0 511.99342 511" width="511pt" xmlns="http://www.w3.org/2000/svg"><path d="m187.726562 503.890625 31.574219-173.722656c1.476563-8.117188 8.550781-14.019531 16.800781-14.011719h39.78125c8.253907-.007812 15.328126 5.894531 16.804688 14.011719l31.574219 173.722656zm0 0" fill="#ffa601"/><path d="m203.257812 418.554688h27.136719l51.199219-34.132813h20.992188l7.679687 42.667969h-28.671875l-51.199219 34.132812h-34.902343zm0 0" fill="#dc1e63"/><path d="m238.925781 125.949219h34.132813v72.617187h-34.132813zm0 0" fill="#6a1b8d"/><path d="m123.640625 313.339844 56.320313-28.929688 12.375 32-56.066407 28.84375zm0 0" fill="#6a1b8d"/><path d="m320.503906 315.132812 55.382813 28.414063 13.398437-31.488281-57.089844-29.269532zm0 0" fill="#6a1b8d"/><path d="m294.480469 339.878906c20.855469-12.03125 34.832031-33.183594 37.714843-57.089844.414063-3.082031.613282-6.191406.597657-9.300781-.003907-35.847656-24.789063-66.929687-59.734375-74.921875-11.238282-2.503906-22.890625-2.503906-34.132813 0-24.703125 5.628906-45.039062 23.082032-54.355469 46.640625-9.316406 23.5625-6.410156 50.203125 7.765626 71.203125 6.464843 9.664063 15.082031 17.695313 25.171874 23.46875l29.953126 10.410156zm0 0" fill="#008082"/><path d="m43.257812 399.695312-30.984374 92.964844c-.867188 2.601563-.429688 5.457032 1.171874 7.683594 1.601563 2.222656 4.175782 3.542969 6.917969 3.546875h57.566407c4.242187 0 7.84375-3.121094 8.445312-7.324219l13.03125-90.980468zm0 0" fill="#dc1e63"/><path d="m468.730469 399.695312 30.984375 92.964844c.867187 2.601563.429687 5.457032-1.171875 7.683594-1.605469 2.222656-4.175781 3.542969-6.917969 3.546875h-57.566406c-4.246094 0-7.84375-3.121094-8.449219-7.324219l-13.03125-90.980468zm0 0" fill="#dc1e63"/><path d="m307.195312 260.6875c0 35.347656-28.65625 64-64 64-35.347656 0-64-28.652344-64-64 0-35.34375 28.652344-64 64-64 35.34375 0 64 28.65625 64 64zm0 0" fill="#00afc7"/><path d="m99.40625 405.585938-13.054688 90.964843c-.597656 4.207031-4.199218 7.335938-8.449218 7.339844h-35.242188l29.355469-94.125.765625-6.996094zm0 0" fill="#a01457"/><path d="m469.328125 503.890625h-35.242187c-4.253907-.003906-7.855469-3.132813-8.449219-7.339844l-13.058594-90.964843 26.625-2.816407.769531 6.996094zm0 0" fill="#a01457"/><g fill="#6a1b8d"><path d="m86.863281 193.703125 4.609375 98.730469-34.050781 1.363281-4.691406-99.15625zm0 0"/><path d="m419.578125 292.6875 4.691406-99.242188 34.050781 1.367188-4.609374 98.644531zm0 0"/><path d="m205.476562 100.519531-77.738281 31.144531-12.714843-31.828124 81.320312-32.425782zm0 0"/><path d="m207.269531 396.539062-71.597656-36.691406-14.847656 30.71875 80.042969 41.046875zm0 0"/><path d="m311.375 433.234375 80.894531-41.472656-15.699219-30.292969h-.085937l-71.425781 36.605469zm0 0"/><path d="m306.597656 100.433594 77.738282 31.0625 12.714843-31.746094-81.410156-32.511719zm0 0"/></g><path d="m127.992188 136.957031c0 32.988281-26.742188 59.730469-59.730469 59.730469-32.992188 0-59.734375-26.742188-59.734375-59.730469 0-32.992187 26.742187-59.734375 59.734375-59.734375 32.988281 0 59.730469 26.742188 59.730469 59.734375zm0 0" fill="#008082"/><path d="m102.394531 124.15625c0 25.917969-21.015625 46.933594-46.933593 46.933594-25.921876 0-46.933594-21.015625-46.933594-46.933594 0-25.921875 21.011718-46.933594 46.933594-46.933594 25.917968 0 46.933593 21.011719 46.933593 46.933594zm0 0" fill="#00afc7"/><path d="m315.726562 68.6875c0 32.992188-26.742187 59.734375-59.734374 59.734375-32.988282 0-59.730469-26.742187-59.730469-59.734375 0-32.988281 26.742187-59.730469 59.730469-59.730469 32.992187 0 59.734374 26.742188 59.734374 59.730469zm0 0" fill="#008082"/><path d="m290.125 55.890625c0 25.917969-21.011719 46.929687-46.929688 46.929687-25.921874 0-46.933593-21.011718-46.933593-46.929687 0-25.921875 21.011719-46.933594 46.933593-46.933594 25.917969 0 46.929688 21.011719 46.929688 46.933594zm0 0" fill="#00afc7"/><path d="m136.527344 350.289062c0 32.988282-26.746094 59.734376-59.734375 59.734376s-59.734375-26.746094-59.734375-59.734376c0-32.988281 26.746094-59.734374 59.734375-59.734374s59.734375 26.746093 59.734375 59.734374zm0 0" fill="#008082"/><path d="m110.925781 337.488281c0 25.921875-21.011719 46.933594-46.933593 46.933594-25.917969 0-46.933594-21.011719-46.933594-46.933594s21.015625-46.933593 46.933594-46.933593c25.921874 0 46.933593 21.011718 46.933593 46.933593zm0 0" fill="#00afc7"/><path d="m494.925781 350.289062c0 32.988282-26.742187 59.734376-59.730469 59.734376-32.992187 0-59.734374-26.746094-59.734374-59.734376 0-32.988281 26.742187-59.734374 59.734374-59.734374 32.988282 0 59.730469 26.746093 59.730469 59.734374zm0 0" fill="#008082"/><path d="m469.328125 337.488281c0 25.921875-21.015625 46.933594-46.933594 46.933594-25.921875 0-46.933593-21.011719-46.933593-46.933594s21.011718-46.933593 46.933593-46.933593c25.917969 0 46.933594 21.011718 46.933594 46.933593zm0 0" fill="#00afc7"/><path d="m503.460938 136.957031c0 32.988281-26.746094 59.730469-59.734376 59.730469-32.988281 0-59.734374-26.742188-59.734374-59.730469 0-32.992187 26.746093-59.734375 59.734374-59.734375 32.988282 0 59.734376 26.742188 59.734376 59.734375zm0 0" fill="#008082"/><path d="m477.859375 124.15625c0 25.917969-21.011719 46.933594-46.933594 46.933594-25.917969 0-46.933593-21.015625-46.933593-46.933594 0-25.921875 21.015624-46.933594 46.933593-46.933594 25.921875 0 46.933594 21.011719 46.933594 46.933594zm0 0" fill="#00afc7"/><path d="m296.355469 358.820312h-80.726563c-4.710937 0-8.53125-3.820312-8.53125-8.53125 0-4.714843 3.820313-8.535156 8.53125-8.535156h80.726563c4.714843 0 8.535156 3.820313 8.535156 8.535156 0 4.710938-3.820313 8.53125-8.535156 8.53125zm0 0" fill="#5e5f62"/><path d="m255.992188 222.289062c-3.917969.015626-7.820313.449219-11.648438 1.296876-23.136719 5.484374-39.496094 26.121093-39.550781 49.902343 0 4.714844 3.820312 8.535157 8.535156 8.535157 4.710937 0 8.53125-3.820313 8.53125-8.535157-.019531-15.816406 10.816406-29.582031 26.199219-33.28125 2.605468-.566406 5.265625-.851562 7.933594-.851562 4.714843 0 8.535156-3.820313 8.535156-8.535157 0-4.710937-3.820313-8.53125-8.535156-8.53125zm0 0"/><path d="m76.792969 111.355469c0-4.710938-3.820313-8.535157-8.53125-8.535157-18.851563 0-34.136719 15.285157-34.136719 34.136719 0 4.710938 3.820312 8.53125 8.535156 8.53125 4.710938 0 8.535156-3.820312 8.535156-8.53125 0-9.425781 7.640626-17.066406 17.066407-17.066406 4.710937 0 8.53125-3.824219 8.53125-8.535156zm0 0"/><path d="m230.394531 77.222656c4.710938 0 8.53125-3.820312 8.53125-8.535156 0-9.425781 7.640625-17.066406 17.066407-17.066406 4.714843 0 8.535156-3.820313 8.535156-8.53125 0-4.714844-3.820313-8.535156-8.535156-8.535156-18.851563 0-34.132813 15.28125-34.132813 34.132812 0 2.265625.898437 4.433594 2.5 6.035156 1.601563 1.601563 3.769531 2.5 6.035156 2.5zm0 0"/><path d="m51.195312 358.820312c4.710938 0 8.53125-3.820312 8.53125-8.53125 0-9.425781 7.640626-17.066406 17.066407-17.066406 4.714843 0 8.535156-3.820312 8.535156-8.535156 0-4.710938-3.820313-8.53125-8.535156-8.53125-18.851563 0-34.132813 15.28125-34.132813 34.132812 0 4.710938 3.820313 8.53125 8.535156 8.53125zm0 0"/><path d="m401.058594 350.289062c0 4.710938 3.820312 8.53125 8.535156 8.53125 4.710938 0 8.53125-3.820312 8.53125-8.53125 0-9.425781 7.644531-17.066406 17.070312-17.066406 4.710938 0 8.53125-3.820312 8.53125-8.535156 0-4.710938-3.820312-8.53125-8.53125-8.53125-18.851562 0-34.136718 15.28125-34.136718 34.132812zm0 0"/><path d="m511.992188 136.957031c.03125-27.835937-16.855469-52.898437-42.667969-63.3125-25.8125-10.417969-55.367188-4.101562-74.664063 15.960938l-70.828125-28.28125c-3.796875-34.648438-33.089843-60.875-67.949219-60.828125-34.859374.046875-64.082031 26.347656-67.789062 61.007812l-70.699219 28.160156c-19.441406-20.238281-49.292969-26.503906-75.230469-15.789062s-42.664062 36.226562-42.1523432 64.28125c.5117192 28.058594 18.1562502 52.941406 44.4648432 62.707031l4.15625 87.320313c-21.425781 9.6875-36.347656 29.742187-39.46875 53.050781-3.125 23.308594 5.988282 46.578125 24.109376 61.570313l-29.105469 87.15625c-1.734375 5.207031-.859375 10.929687 2.351562 15.378906 3.210938 4.453125 8.363281 7.085937 13.851563 7.082031h57.558594c8.480468-.03125 15.660156-6.261719 16.894531-14.652344l12.390625-86.457031c5.5-2.753906 10.605468-6.242188 15.171875-10.359375l68.957031 35.359375-12.003906 66.050781c-.453125 2.488281.21875 5.046875 1.839844 6.988281 1.621093 1.945313 4.019531 3.070313 6.546874 3.070313h136.535157c2.527343 0 4.925781-1.125 6.546875-3.070313 1.617187-1.941406 2.292968-4.5 1.839844-6.988281l-11.714844-64.445312 69.902344-35.839844c4.25 3.636719 8.929687 6.738281 13.9375 9.234375l12.390624 86.457031c1.230469 8.390625 8.414063 14.621094 16.894532 14.652344h57.558594c5.488281.007813 10.648437-2.625 13.863281-7.078125 3.210937-4.453125 4.085937-10.179688 2.347656-15.390625l-29.070313-87.148437c18.25-15.101563 27.351563-38.59375 24.046876-62.046876-3.304688-23.457031-18.546876-43.515624-40.261719-52.984374l4.042969-86.5625c27.1875-9.683594 45.359374-35.398438 45.40625-64.253907zm-68.265626-51.203125c28.277344 0 51.199219 22.925782 51.199219 51.203125 0 28.277344-22.921875 51.199219-51.199219 51.199219-28.277343 0-51.199218-22.921875-51.199218-51.199219 0-1.75.09375-3.484375.265625-5.191406 0-.160156.074219-.324219.066406-.484375 2.914063-25.902344 24.804687-45.488281 50.867187-45.527344zm-56.242187 215.792969-46.292969-23.730469c.074219-1.410156.136719-2.816406.136719-4.328125-.214844-37.203125-24.3125-70.050781-59.734375-81.425781v-60.132812c11.007812-4.488282 20.65625-11.761719 28.007812-21.101563l65.859376 26.316406c.101562 26.664063 15.722656 50.832031 39.996093 61.875l-4.15625 87.390625c-8.902343 3.339844-17.015625 8.492188-23.816406 15.136719zm-287.769531-15.480469-4.046875-86.636718c24.667969-10.835938 40.667969-35.148438 40.859375-62.089844l65.953125-26.453125c7.328125 9.3125 16.945312 16.5625 27.914062 21.042969v60.132812c-35.425781 11.367188-59.527343 44.222656-59.734375 81.425781 0 1.964844.28125 3.925781.417969 5.886719l-45.421875 23.339844c-7.265625-7.453125-16.140625-13.148438-25.941406-16.648438zm224.007812-4.265625c-1.246094 10.234375-4.800781 20.054688-10.402344 28.714844-3.625 5.5625-8.0625 10.554687-13.160156 14.8125-3.394531-10.542969-13.199218-17.695313-24.277344-17.707031h-39.78125c-11.09375.011718-20.914062 7.1875-24.285156 17.757812-12.726562-10.695312-21.0625-25.710937-23.40625-42.171875-4.992187-35.15625 17.746094-68.285156 52.34375-76.277343 10.015625-2.210938 20.394532-2.210938 30.410156 0 30.960938 7.238281 52.921876 34.761718 53.097657 66.558593.011719 2.78125-.167969 5.5625-.539063 8.320313zm-37.605468 59.953125h-60.246094l1.835937-10.058594c.738281-4.058593 4.269531-7.007812 8.394531-7.007812h39.78125c4.125 0 7.660157 2.949219 8.398438 7.007812zm-63.34375 17.066406h66.441406l3.105468 17.070313h-10.726562c-1.683594 0-3.332031.5-4.738281 1.433594l-49.023438 32.699219h-14.367187zm41.753906-170.1875c-5.675782-.5625-11.390625-.5625-17.066406 0v-52.265624c5.660156.785156 11.402343.785156 17.066406 0zm-90.453125 108.375c1.558593 5.511719 3.664062 10.855469 6.289062 15.949219l-37.761719 19.410157c-1.5-5.535157-3.699218-10.859376-6.535156-15.84375zm-29.015625 53.324219 44.820312-23.039062c5.226563 6.429687 11.382813 12.054687 18.257813 16.679687l-7.226563 39.742188-56.089844-28.742188c.113282-1.5625.238282-3.089844.238282-4.640625zm65.296875 76.757813h20.039062c1.683594-.003906 3.332031-.503906 4.734375-1.433594l49.023438-32.699219h11.265625l4.660156 25.597657h-18.484375c-1.683594.003906-3.332031.503906-4.738281 1.433593l-49.023438 32.699219h-22.101562zm93.484375-83.183594c7.304687-4.921875 13.792968-10.949219 19.242187-17.871094l43.929688 22.546875c0 .570313-.085938 1.136719-.085938 1.707031 0 2.132813.128907 4.265626.324219 6.324219l-55.890625 28.664063zm65.953125-13.074219-37.496094-19.234375c2.546875-5.140625 4.5625-10.527344 6.027344-16.074218l38.398437 19.695312c-2.960937 4.886719-5.289062 10.136719-6.929687 15.613281zm7.972656-211.15625-59.25-23.679687c2.300781-5.277344 3.914063-10.828125 4.804687-16.511719l60.800782 24.285156c-2.785156 5.011719-4.921875 10.355469-6.355469 15.90625zm-121.773437-102.1875c27.726562.027344 50.394531 22.121094 51.132812 49.835938v.203125c0 .394531.058594.769531.058594 1.160156-.359375 28.019531-23.175782 50.539062-51.195313 50.539062s-50.832031-22.519531-51.195312-50.539062c0-.3125 0-.621094.050781-.929688v-.296874c.667969-27.777344 23.367188-49.953126 51.148438-49.972657zm-67.300782 62.15625c.910156 5.671875 2.53125 11.207031 4.828125 16.46875l-59.246093 23.777344c-1.429688-5.578125-3.5625-10.949219-6.347657-15.984375zm-171.632812 57.3125c0-28.277343 22.925781-51.203125 51.203125-51.203125 28.273437 0 51.199219 22.925782 51.199219 51.203125 0 28.277344-22.925782 51.199219-51.199219 51.199219-28.265625-.027344-51.171875-22.933594-51.203125-51.199219zm44.699218 67.933594c2.140626.203125 4.265626.332031 6.503907.332031 3.535156-.023437 7.066406-.328125 10.554687-.90625l3.632813 77.996094c-1.867188-.164062-3.746094-.289062-5.65625-.289062-3.800781.023437-7.589844.367187-11.332031 1.023437zm-36.164062 145.398437c.195312-27.265624 21.722656-49.59375 48.960938-50.785156 27.238281-1.191406 50.632812 19.171875 53.207031 46.3125v.144532c.121093 1.425781.222656 2.867187.222656 4.328124-.359375 28.015626-23.175781 50.539063-51.195313 50.539063-28.019531 0-50.832031-22.523437-51.195312-50.539063zm-5.230469 145.066407 27.742188-83.207031c4.105469 1.917968 8.390625 3.414062 12.800781 4.46875l-24.527344 78.738281zm57.566407 0h-23.664063l23.976563-76.875c3.644531-.074219 7.273437-.4375 10.855468-1.09375zm55.925781-107.699219c3.125-4.773438 5.640625-9.917969 7.484375-15.316406l56.378906 28.894531-3.164062 17.542969zm64.109375 107.699219 4.660156-25.601563h27.769531c1.683594 0 3.332031-.5 4.734375-1.433594l49.023438-32.699218h18.996094l10.871093 59.734375zm116.585937-92.550781 56.625-29.015626c1.960938 5.375 4.59375 10.476563 7.835938 15.191407l-61.261719 31.410156zm108.371094 14.582031c3.582031.65625 7.214844 1.019531 10.855469 1.09375l23.945312 76.875h-23.664062zm68.695313 77.96875h-16.011719l-24.558594-78.738281c4.40625-1.054688 8.695313-2.550782 12.800781-4.46875zm-5.222657-145.066407c.089844 19.078126-10.433593 36.625-27.304687 45.53125-16.875 8.902344-37.300782 7.683594-52.996094-3.160156-15.699219-10.84375-24.0625-29.515625-21.707031-48.445312 3.332031-26.792969 26.898437-46.394532 53.851562-44.789063s48.023438 23.863281 48.15625 50.863281zm-40.738281-67.414062c-3.460938-.550781-6.957031-.835938-10.460938-.851562-2.21875 0-4.414062.125-6.589843.332031l3.695312-78.164063c3.773438.664063 7.59375 1.007813 11.425781 1.03125 1.886719 0 3.730469-.136718 5.574219-.28125zm0 0"/><path d="m418.125 145.488281c4.714844 0 8.535156-3.820312 8.535156-8.53125 0-9.425781 7.640625-17.066406 17.066406-17.066406 4.714844 0 8.535157-3.824219 8.535157-8.535156 0-4.710938-3.820313-8.535157-8.535157-8.535157-18.851562 0-34.132812 15.285157-34.132812 34.136719 0 4.710938 3.820312 8.53125 8.53125 8.53125zm0 0"/></svg>